<?xml version="1.0" encoding="utf-8"?>
<!-- Generator: Adobe Illustrator 20.1.0, SVG Export Plug-In . SVG Version: 6.00 Build 0)  -->
<svg version="1.1" id="Layer_1" xmlns="http://www.w3.org/2000/svg" xmlns:xlink="http://www.w3.org/1999/xlink" x="0px" y="0px"
	 viewBox="0 0 228.7 104.7" style="enable-background:new 0 0 228.7 104.7;" xml:space="preserve">
<style type="text/css">
	.st0{fill:#FFFFFF;}
	.st1{opacity:0.62;fill:#FFFFFF;}
	.st2{opacity:0.41;fill:#FFFFFF;}
	.st3{fill:none;}
	.st4{opacity:0.41;fill:#E8BE57;}
	.st5{opacity:0.64;fill:#E8BE57;}
	.st6{fill:#193C69;}
	.st7{fill:none;stroke:#EAD7AC;stroke-width:5;stroke-miterlimit:10;}
	.st8{fill:none;stroke:#E8BE57;stroke-width:8;stroke-linecap:square;stroke-miterlimit:10;}
	.st9{fill:#E8BE57;}
</style>
<rect x="51.4" y="20.1" class="st0" width="7.6" height="6.8"/>
<rect x="88.6" y="21.7" transform="matrix(5.306258e-02 -0.9986 0.9986 5.306258e-02 62.1084 114.4151)" class="st1" width="5.6" height="5.6"/>
<rect x="139.9" y="9.8" transform="matrix(0.965 -0.2621 0.2621 0.965 1.3473 38.2784)" class="st0" width="8.5" height="8.5"/>
<rect x="160.7" y="27" transform="matrix(0.1251 -0.9921 0.9921 0.1251 113.4914 188.1775)" class="st2" width="5.6" height="5.6"/>
<g>
	<path class="st3" d="M160.5,31l-0.1,1.2l5.5,0.7l0.1-1.1c-0.2,0-0.4-0.1-0.6-0.1C163.8,31.4,162.2,31.1,160.5,31z"/>
	<path class="st3" d="M166.4,28.9l0.2-1.6l-5.5-0.7l-0.2,1.5"/>
	<path class="st4" d="M167.5,29.1l0.4-2.8l-7.9-1l-0.3,2.7c-8.5-0.6-18.2,0.4-28.9,3.1c-22.5,5.7-41.8,16.9-42,17.1l1.5,2.5
		c0.2-0.1,19.2-11.2,41.3-16.8c10.3-2.6,19.5-3.6,27.7-3.1l-0.3,2.3l7.9,1l0.3-2.2c10.9,2.4,19.3,8.2,25,17.3l2.5-1.6
		C188.5,37.9,179.3,31.6,167.5,29.1z M166.4,28.9l-0.4,2.9l-0.1,1.1l-5.5-0.7l0.1-1.2l0.4-2.9l0.2-1.5l5.5,0.7L166.4,28.9z"/>
</g>
<path class="st5" d="M95.4,23.5l0.1-2.8l-7.9-0.4l-0.2,3c-18.6,1.8-33.7,11.4-43.1,19.3C34,51.3,27.8,59.8,27.6,60.5l1.3,0.4
	l0.8,0.5c0.2-0.3,22.6-32.2,57.6-35.7l-0.1,2.5l7.9,0.4l0.1-2.2c8.6,1.5,29.2,7,42.9,26.1l2.4-1.7C125.8,30.4,104.2,24.9,95.4,23.5z
	 M94.1,26.3L94,27.4l-5.6-0.3l0.3-5.6l5.6,0.3l-0.1,1.5"/>
<g>
	<path class="st6" d="M16,86.1v8.1h-1.1v-8.1h-3v-1H19v1H16z"/>
	<path class="st6" d="M21.4,86.3c-0.1,0.1-0.3,0.2-0.5,0.2s-0.3-0.1-0.5-0.2s-0.2-0.3-0.2-0.5s0.1-0.3,0.2-0.5
		c0.1-0.1,0.3-0.2,0.5-0.2s0.3,0.1,0.5,0.2c0.1,0.1,0.2,0.3,0.2,0.5S21.5,86.2,21.4,86.3z M20.4,94.2V88h1v6.2H20.4z"/>
	<path class="st6" d="M23.7,94.2v-10h1v10H23.7z"/>
	<path class="st6" d="M32.3,92.3c-0.2,0.4-0.4,0.8-0.7,1.1c-0.3,0.3-0.7,0.6-1.2,0.7s-1,0.3-1.5,0.3c-0.2,0-0.4,0-0.6,0
		c-0.2,0-0.4-0.1-0.6-0.1c-0.1,0-0.2-0.1-0.3-0.1c-0.1,0-0.2-0.1-0.3-0.1v-9.9h1v4.1c0.2-0.1,0.3-0.1,0.4-0.2c0.1,0,0.2-0.1,0.3-0.1
		c0.2,0,0.3-0.1,0.6-0.1c0.2,0,0.4,0,0.6,0c0.4,0,0.8,0.1,1.1,0.2c0.3,0.1,0.6,0.3,0.8,0.6c0.2,0.3,0.4,0.6,0.5,1s0.2,0.8,0.2,1.2
		C32.5,91.4,32.4,91.9,32.3,92.3z M30.9,89.3c-0.3-0.4-0.8-0.5-1.4-0.5c-0.3,0-0.6,0-0.8,0.1c-0.2,0.1-0.5,0.2-0.7,0.4v4
		c0.1,0.1,0.3,0.1,0.4,0.2c0.1,0,0.3,0,0.5,0c0.2,0,0.4,0,0.5-0.1c0.2,0,0.4-0.1,0.5-0.2c0.2-0.1,0.3-0.2,0.5-0.3
		c0.3-0.2,0.6-0.5,0.7-0.8s0.2-0.7,0.2-1.3C31.4,90.2,31.2,89.7,30.9,89.3z"/>
	<path class="st6" d="M38.4,94.2v-1.3c-0.7,1-1.5,1.5-2.5,1.5c-1.1,0-1.7-0.6-1.7-1.8V88h1v4.4c0,0.4,0.1,0.7,0.2,0.8
		c0.1,0.2,0.3,0.3,0.6,0.3c0.2,0,0.3,0,0.6-0.1c0.2-0.1,0.4-0.2,0.6-0.4c0.2-0.2,0.4-0.3,0.6-0.5c0.2-0.2,0.4-0.4,0.6-0.7V88h1v6.2
		H38.4z"/>
	<path class="st6" d="M44.7,89.1c-0.2-0.2-0.3-0.2-0.4-0.2c-0.4,0-0.9,0.5-1.5,1.6v3.7h-1V88h1v1.1c0.2-0.2,0.4-0.5,0.5-0.6
		c0.2-0.2,0.3-0.3,0.4-0.4c0.1-0.1,0.2-0.2,0.4-0.2c0.1,0,0.2-0.1,0.3-0.1c0.2,0,0.5,0.1,0.8,0.4L44.7,89.1z"/>
	<path class="st6" d="M50.6,88.9c0.2,0.4,0.4,0.8,0.4,1.3c0,0.3-0.1,0.6-0.2,0.9c-0.1,0.3-0.3,0.5-0.5,0.8c-0.2,0.2-0.5,0.4-0.8,0.5
		c-0.3,0.1-0.6,0.2-0.9,0.2c0,0-0.1,0-0.2,0s-0.1,0-0.2,0c0,0,0,0-0.1,0c0,0-0.1,0-0.1,0c-0.3,0.2-0.5,0.4-0.6,0.6
		c-0.1,0.1-0.2,0.3-0.2,0.4c0,0.1,0,0.1,0.1,0.2s0.2,0,0.4,0H50c0.6,0,1,0.1,1.3,0.4s0.4,0.6,0.4,1.1c0,0.4-0.1,0.7-0.3,1
		c-0.2,0.3-0.4,0.6-0.7,0.8c-0.3,0.2-0.7,0.4-1.1,0.6c-0.4,0.1-0.8,0.2-1.3,0.2c-0.3,0-0.6,0-0.9-0.1c-0.3-0.1-0.6-0.2-0.8-0.3
		c-0.2-0.1-0.4-0.3-0.5-0.5c-0.1-0.2-0.2-0.4-0.2-0.6c0-0.2,0.1-0.4,0.2-0.6c0.1-0.2,0.2-0.3,0.3-0.5c0.1-0.1,0.3-0.3,0.5-0.6
		c-0.3-0.1-0.6-0.2-0.7-0.3S46,93.9,46,93.7c0-0.2,0.1-0.4,0.3-0.7c0.2-0.2,0.5-0.5,0.9-0.9c-0.8-0.4-1.2-1.1-1.2-2
		c0-0.3,0.1-0.7,0.2-1s0.3-0.5,0.5-0.8c0.2-0.2,0.5-0.4,0.8-0.5c0.3-0.1,0.6-0.2,1-0.2c0.1,0,0.2,0,0.3,0c0.1,0,0.2,0,0.3,0
		c0.1,0,0.2,0,0.3,0.1c0.1,0,0.2,0.1,0.4,0.1h1L52,88v0.9H50.6z M50,94.6h-2.3l-0.2,0.3c-0.2,0.3-0.3,0.5-0.4,0.7S47,95.9,47,96
		c0,0.2,0.1,0.4,0.4,0.6c0.3,0.1,0.6,0.2,1,0.2c0.3,0,0.6,0,0.9-0.1c0.3-0.1,0.5-0.2,0.8-0.3c0.2-0.1,0.4-0.3,0.5-0.5
		c0.1-0.2,0.2-0.4,0.2-0.6C50.8,94.8,50.6,94.6,50,94.6z M49.8,89.6c-0.1-0.2-0.2-0.4-0.3-0.5s-0.3-0.2-0.4-0.3
		c-0.2-0.1-0.4-0.1-0.6-0.1c-0.2,0-0.4,0-0.5,0.1c-0.2,0.1-0.3,0.2-0.4,0.3c-0.1,0.1-0.2,0.3-0.3,0.5c-0.1,0.2-0.1,0.4-0.1,0.6
		c0,0.2,0,0.4,0.1,0.6s0.2,0.4,0.3,0.5s0.3,0.3,0.4,0.3c0.2,0.1,0.4,0.1,0.5,0.1c0.2,0,0.4,0,0.5-0.1s0.3-0.2,0.4-0.3
		s0.2-0.3,0.3-0.5c0.1-0.2,0.1-0.4,0.1-0.6S49.8,89.7,49.8,89.6z"/>
	<path class="st6" d="M57.2,94.2v-9.1h5.1v1h-4v3h3.3v1h-3.3v3.2h4.1v1H57.2z"/>
	<path class="st6" d="M67.2,94.2l-1.4-2.3l-1.5,2.3h-1.2l2.1-3.2L63.2,88h1.3l1.4,2.3l1.4-2.3h1.2l-2.1,3l2.2,3.2H67.2z"/>
	<path class="st6" d="M75.3,92.3c-0.2,0.4-0.4,0.8-0.7,1.1c-0.3,0.3-0.6,0.5-1,0.7s-0.8,0.3-1.3,0.3c-0.3,0-0.6,0-0.8-0.1
		c-0.2-0.1-0.4-0.2-0.6-0.3v3.6h-1V88h1v0.8c0.3-0.3,0.6-0.5,0.9-0.7s0.7-0.3,1.1-0.3c0.4,0,0.7,0.1,1.1,0.2s0.6,0.4,0.8,0.6
		c0.2,0.3,0.4,0.6,0.5,1s0.2,0.8,0.2,1.3C75.5,91.4,75.4,91.9,75.3,92.3z M74.3,90.1c-0.1-0.3-0.2-0.5-0.3-0.7
		c-0.1-0.2-0.3-0.3-0.5-0.4c-0.2-0.1-0.4-0.2-0.7-0.2c-0.2,0-0.4,0-0.6,0.1s-0.4,0.2-0.6,0.3c-0.1,0.1-0.2,0.2-0.3,0.3
		c-0.1,0.1-0.2,0.2-0.4,0.4v2.2c0,0.3,0,0.4,0,0.5s0,0.2,0.1,0.3c0.2,0.4,0.6,0.5,1.3,0.5c0.7,0,1.2-0.2,1.6-0.7
		c0.4-0.4,0.6-1,0.6-1.8C74.4,90.6,74.4,90.3,74.3,90.1z"/>
	<path class="st6" d="M77.8,91c0,0.8,0.2,1.4,0.5,1.8c0.4,0.4,0.9,0.6,1.5,0.6c0.3,0,0.5,0,0.8-0.1c0.2-0.1,0.5-0.2,0.9-0.5l0.4,0.8
		c-0.2,0.1-0.4,0.3-0.6,0.4s-0.4,0.2-0.5,0.2s-0.3,0.1-0.5,0.1c-0.2,0-0.4,0-0.6,0c-0.4,0-0.8-0.1-1.2-0.2c-0.4-0.2-0.7-0.4-0.9-0.7
		s-0.5-0.6-0.6-1c-0.1-0.4-0.2-0.9-0.2-1.4s0.1-0.9,0.2-1.4c0.1-0.4,0.3-0.8,0.6-1c0.3-0.3,0.6-0.5,0.9-0.7c0.4-0.2,0.8-0.2,1.2-0.2
		c0.4,0,0.7,0.1,1,0.2c0.3,0.1,0.5,0.3,0.8,0.5c0.2,0.2,0.4,0.5,0.5,0.8c0.1,0.3,0.2,0.7,0.2,1.1V91H77.8z M80.6,89.1
		c-0.2-0.3-0.6-0.4-1-0.4c-0.4,0-0.8,0.1-1.1,0.4c-0.3,0.3-0.5,0.6-0.6,1.1h3.1C80.9,89.8,80.8,89.4,80.6,89.1z"/>
	<path class="st6" d="M86.7,89.1c-0.2-0.2-0.3-0.2-0.4-0.2c-0.4,0-0.9,0.5-1.5,1.6v3.7h-1V88h1v1.1c0.2-0.2,0.4-0.5,0.5-0.6
		c0.2-0.2,0.3-0.3,0.4-0.4c0.1-0.1,0.2-0.2,0.4-0.2c0.1,0,0.2-0.1,0.3-0.1c0.2,0,0.5,0.1,0.8,0.4L86.7,89.1z"/>
	<path class="st6" d="M89.4,86.3c-0.1,0.1-0.3,0.2-0.5,0.2c-0.2,0-0.3-0.1-0.5-0.2c-0.1-0.1-0.2-0.3-0.2-0.5s0.1-0.3,0.2-0.5
		c0.1-0.1,0.3-0.2,0.5-0.2c0.2,0,0.3,0.1,0.5,0.2c0.1,0.1,0.2,0.3,0.2,0.5S89.5,86.2,89.4,86.3z M88.4,94.2V88h1v6.2H88.4z"/>
	<path class="st6" d="M92.3,91c0,0.8,0.2,1.4,0.5,1.8c0.4,0.4,0.9,0.6,1.5,0.6c0.3,0,0.5,0,0.8-0.1c0.2-0.1,0.5-0.2,0.9-0.5l0.4,0.8
		c-0.2,0.1-0.4,0.3-0.6,0.4s-0.4,0.2-0.5,0.2s-0.3,0.1-0.5,0.1c-0.2,0-0.4,0-0.6,0c-0.4,0-0.8-0.1-1.2-0.2c-0.4-0.2-0.7-0.4-0.9-0.7
		s-0.5-0.6-0.6-1c-0.1-0.4-0.2-0.9-0.2-1.4s0.1-0.9,0.2-1.4c0.1-0.4,0.3-0.8,0.6-1c0.3-0.3,0.6-0.5,0.9-0.7c0.4-0.2,0.8-0.2,1.2-0.2
		c0.4,0,0.7,0.1,1,0.2c0.3,0.1,0.5,0.3,0.8,0.5c0.2,0.2,0.4,0.5,0.5,0.8c0.1,0.3,0.2,0.7,0.2,1.1V91H92.3z M95.1,89.1
		c-0.2-0.3-0.6-0.4-1-0.4c-0.4,0-0.8,0.1-1.1,0.4c-0.3,0.3-0.5,0.6-0.6,1.1h3.1C95.4,89.8,95.3,89.4,95.1,89.1z"/>
	<path class="st6" d="M102.4,94.2v-4.4c0-0.2,0-0.4,0-0.5s0-0.2-0.1-0.3c0-0.1-0.1-0.2-0.2-0.2c-0.1-0.1-0.2-0.1-0.4-0.1
		c-0.3,0-0.7,0.1-1,0.4s-0.8,0.7-1.4,1.3v3.8h-1V88h1v1.3c0.1-0.1,0.2-0.2,0.3-0.3c0.1-0.1,0.1-0.2,0.2-0.2c0.1-0.1,0.1-0.1,0.2-0.2
		s0.1-0.1,0.2-0.2c0.2-0.2,0.5-0.4,0.8-0.5c0.3-0.1,0.6-0.2,0.9-0.2c1.1,0,1.6,0.6,1.6,1.7v4.7H102.4z"/>
	<path class="st6" d="M110.3,93.9c-0.1,0-0.1,0.1-0.2,0.1c-0.5,0.3-1.1,0.4-1.7,0.4c-0.5,0-0.9-0.1-1.3-0.2c-0.4-0.2-0.7-0.4-1-0.7
		c-0.3-0.3-0.5-0.6-0.7-1c-0.2-0.4-0.2-0.8-0.2-1.3c0-0.5,0.1-0.9,0.2-1.4c0.2-0.4,0.4-0.8,0.7-1.1c0.3-0.3,0.6-0.5,1-0.7
		c0.4-0.2,0.8-0.2,1.3-0.2c0.3,0,0.6,0,0.9,0.1c0.1,0,0.2,0.1,0.3,0.1c0.1,0,0.2,0.1,0.2,0.1c0.1,0,0.2,0.1,0.2,0.1
		c0.1,0.1,0.2,0.1,0.3,0.2l-0.6,0.8c-0.2-0.2-0.5-0.3-0.7-0.4c-0.2-0.1-0.5-0.1-0.7-0.1c-0.6,0-1.1,0.2-1.5,0.7
		c-0.4,0.4-0.6,1-0.6,1.7c0,0.7,0.2,1.3,0.6,1.7c0.4,0.4,0.9,0.6,1.6,0.6c0.3,0,0.6,0,0.8-0.1s0.5-0.2,0.7-0.4l0.5,0.8
		C110.4,93.8,110.4,93.9,110.3,93.9z"/>
	<path class="st6" d="M112.4,91c0,0.8,0.2,1.4,0.5,1.8c0.4,0.4,0.9,0.6,1.5,0.6c0.3,0,0.5,0,0.8-0.1c0.2-0.1,0.5-0.2,0.9-0.5
		l0.4,0.8c-0.2,0.1-0.4,0.3-0.6,0.4s-0.4,0.2-0.5,0.2s-0.3,0.1-0.5,0.1c-0.2,0-0.4,0-0.6,0c-0.4,0-0.8-0.1-1.2-0.2
		c-0.4-0.2-0.7-0.4-0.9-0.7s-0.5-0.6-0.6-1c-0.1-0.4-0.2-0.9-0.2-1.4s0.1-0.9,0.2-1.4c0.1-0.4,0.3-0.8,0.6-1
		c0.3-0.3,0.6-0.5,0.9-0.7c0.4-0.2,0.8-0.2,1.2-0.2c0.4,0,0.7,0.1,1,0.2c0.3,0.1,0.5,0.3,0.8,0.5c0.2,0.2,0.4,0.5,0.5,0.8
		c0.1,0.3,0.2,0.7,0.2,1.1V91H112.4z M115.2,89.1c-0.2-0.3-0.6-0.4-1-0.4c-0.4,0-0.8,0.1-1.1,0.4c-0.3,0.3-0.5,0.6-0.6,1.1h3.1
		C115.5,89.8,115.4,89.4,115.2,89.1z"/>
	<path class="st6" d="M126.7,86.7c-0.2-0.1-0.4-0.2-0.5-0.3s-0.3-0.1-0.4-0.2c-0.2-0.1-0.4-0.1-0.6-0.1c-0.2,0-0.5-0.1-0.6-0.1
		c-0.5,0-0.9,0.1-1.3,0.4c-0.3,0.2-0.5,0.5-0.5,0.9c0,0.2,0,0.3,0.1,0.5s0.2,0.3,0.3,0.4c0.2,0.1,0.4,0.3,0.7,0.5s0.7,0.4,1.1,0.6
		c0.6,0.3,1.1,0.6,1.4,0.9c0.2,0.2,0.4,0.4,0.5,0.7c0.1,0.3,0.2,0.6,0.2,0.9c0,0.8-0.3,1.4-0.8,1.9c-0.5,0.5-1.3,0.7-2.2,0.7
		c-0.6,0-1.2-0.1-1.7-0.3c-0.1,0-0.2-0.1-0.2-0.1c-0.1,0-0.2-0.1-0.2-0.1s-0.2-0.1-0.3-0.2c-0.1-0.1-0.2-0.2-0.4-0.3l0.6-0.9
		c0.3,0.2,0.5,0.3,0.6,0.4c0.1,0.1,0.3,0.1,0.4,0.2c0.4,0.2,0.8,0.2,1.3,0.2c0.5,0,1-0.1,1.3-0.4c0.3-0.2,0.5-0.6,0.5-1
		c0-0.3,0-0.5-0.1-0.6c-0.2-0.3-0.4-0.5-0.8-0.7c-0.1,0-0.2-0.1-0.5-0.3c-0.3-0.1-0.6-0.3-1-0.6c-0.7-0.4-1.2-0.7-1.5-1.1
		c-0.3-0.4-0.5-0.8-0.5-1.3c0-0.4,0.1-0.7,0.2-1c0.1-0.3,0.3-0.6,0.6-0.8c0.3-0.2,0.6-0.4,1-0.5s0.8-0.2,1.2-0.2
		c0.3,0,0.5,0,0.8,0.1c0.3,0,0.5,0.1,0.7,0.2c0.1,0,0.2,0.1,0.3,0.1c0.1,0,0.2,0.1,0.2,0.1c0.1,0,0.2,0.1,0.3,0.1
		c0.1,0.1,0.2,0.1,0.3,0.2L126.7,86.7z"/>
	<path class="st6" d="M133.6,94.4c-0.4,0-0.7-0.1-0.9-0.2c-0.2-0.1-0.3-0.3-0.3-0.6c-0.2,0.1-0.3,0.2-0.4,0.3
		c-0.1,0.1-0.2,0.1-0.3,0.2c-0.2,0.1-0.4,0.2-0.6,0.3c-0.2,0.1-0.5,0.1-0.7,0.1c-0.5,0-0.9-0.1-1.2-0.4c-0.3-0.3-0.5-0.7-0.5-1.2
		c0-0.5,0.1-0.8,0.4-1.1s0.6-0.5,1-0.6l2.2-0.5v-1.1c0-0.5-0.4-0.8-1.2-0.8c-0.6,0-1,0.2-1,0.5c0,0.1,0,0.1,0.1,0.2l-1,0.2
		c0-0.1-0.1-0.1-0.1-0.2s0-0.1,0-0.2c0-0.4,0.2-0.7,0.6-1c0.4-0.3,1-0.4,1.6-0.4c0.6,0,1.1,0.1,1.5,0.4c0.4,0.3,0.5,0.7,0.5,1.1v3.4
		v0.5c0,0.2,0.2,0.3,0.5,0.3L133.6,94.4z M132.3,91.4l-2.3,0.6c-0.1,0.1-0.1,0.3-0.1,0.4c0,0.1,0,0.2,0,0.3c0,0.2,0.1,0.4,0.2,0.6
		c0.2,0.1,0.4,0.2,0.6,0.2c0.1,0,0.2,0,0.3,0c0.1,0,0.2-0.1,0.3-0.1s0.3-0.1,0.4-0.2c0.2-0.1,0.4-0.2,0.6-0.4V91.4z"/>
	<path class="st6" d="M144,94.2v-4.4c0-0.2,0-0.4,0-0.5c0-0.1,0-0.2-0.1-0.3c0-0.1-0.1-0.2-0.2-0.2c-0.1-0.1-0.2-0.1-0.4-0.1
		c-0.3,0-0.6,0.1-0.9,0.3c-0.3,0.2-0.7,0.6-1.2,1l-0.3,0.3v3.8h-1v-4.4c0-0.2,0-0.4,0-0.5s0-0.2-0.1-0.3c0-0.1-0.1-0.2-0.2-0.2
		c-0.1-0.1-0.2-0.1-0.4-0.1c-0.3,0-0.7,0.1-1,0.4s-0.8,0.7-1.4,1.3v3.8h-1V88h1v1.3c0.1-0.1,0.2-0.2,0.3-0.3
		c0.1-0.1,0.1-0.2,0.2-0.2c0.1-0.1,0.1-0.1,0.2-0.2s0.1-0.1,0.2-0.2c0.2-0.2,0.5-0.4,0.8-0.5c0.3-0.1,0.6-0.2,0.9-0.2
		c1,0,1.6,0.5,1.6,1.5c0.1-0.1,0.2-0.2,0.3-0.3c0.1-0.1,0.1-0.2,0.2-0.2s0.1-0.1,0.2-0.2c0.1-0.1,0.1-0.1,0.2-0.2
		c0.2-0.2,0.5-0.4,0.8-0.5c0.3-0.1,0.6-0.2,0.9-0.2c1.1,0,1.6,0.6,1.6,1.7v4.7H144z"/>
	<path class="st6" d="M152.9,92.3c-0.2,0.4-0.4,0.8-0.7,1.1c-0.3,0.3-0.6,0.5-1,0.7s-0.8,0.3-1.3,0.3c-0.3,0-0.6,0-0.8-0.1
		c-0.2-0.1-0.4-0.2-0.6-0.3v3.6h-1V88h1v0.8c0.3-0.3,0.6-0.5,0.9-0.7s0.7-0.3,1.1-0.3c0.4,0,0.7,0.1,1.1,0.2s0.6,0.4,0.8,0.6
		c0.2,0.3,0.4,0.6,0.5,1s0.2,0.8,0.2,1.3C153.1,91.4,153,91.9,152.9,92.3z M151.9,90.1c-0.1-0.3-0.2-0.5-0.3-0.7
		c-0.1-0.2-0.3-0.3-0.5-0.4c-0.2-0.1-0.4-0.2-0.7-0.2c-0.2,0-0.4,0-0.6,0.1s-0.4,0.2-0.6,0.3c-0.1,0.1-0.2,0.2-0.3,0.3
		c-0.1,0.1-0.2,0.2-0.4,0.4v2.2c0,0.3,0,0.4,0,0.5s0,0.2,0.1,0.3c0.2,0.4,0.6,0.5,1.3,0.5c0.7,0,1.2-0.2,1.6-0.7
		c0.4-0.4,0.6-1,0.6-1.8C152,90.6,151.9,90.3,151.9,90.1z"/>
	<path class="st6" d="M154.8,94.2v-10h1v10H154.8z"/>
	<path class="st6" d="M159.2,86.3c-0.1,0.1-0.3,0.2-0.5,0.2c-0.2,0-0.3-0.1-0.5-0.2c-0.1-0.1-0.2-0.3-0.2-0.5s0.1-0.3,0.2-0.5
		c0.1-0.1,0.3-0.2,0.5-0.2c0.2,0,0.3,0.1,0.5,0.2c0.1,0.1,0.2,0.3,0.2,0.5S159.3,86.2,159.2,86.3z M158.2,94.2V88h1v6.2H158.2z"/>
	<path class="st6" d="M165.7,94.2v-4.4c0-0.2,0-0.4,0-0.5s0-0.2-0.1-0.3c0-0.1-0.1-0.2-0.2-0.2c-0.1-0.1-0.2-0.1-0.4-0.1
		c-0.3,0-0.7,0.1-1,0.4s-0.8,0.7-1.4,1.3v3.8h-1V88h1v1.3c0.1-0.1,0.2-0.2,0.3-0.3c0.1-0.1,0.1-0.2,0.2-0.2c0.1-0.1,0.1-0.1,0.2-0.2
		s0.1-0.1,0.2-0.2c0.2-0.2,0.5-0.4,0.8-0.5c0.3-0.1,0.6-0.2,0.9-0.2c1.1,0,1.6,0.6,1.6,1.7v4.7H165.7z"/>
	<path class="st6" d="M173.3,88.9c0.2,0.4,0.4,0.8,0.4,1.3c0,0.3-0.1,0.6-0.2,0.9c-0.1,0.3-0.3,0.5-0.5,0.8
		c-0.2,0.2-0.5,0.4-0.8,0.5c-0.3,0.1-0.6,0.2-0.9,0.2c0,0-0.1,0-0.2,0s-0.1,0-0.2,0c0,0,0,0-0.1,0c0,0-0.1,0-0.1,0
		c-0.3,0.2-0.5,0.4-0.6,0.6c-0.1,0.1-0.2,0.3-0.2,0.4c0,0.1,0,0.1,0.1,0.2s0.2,0,0.4,0h2.3c0.6,0,1,0.1,1.3,0.4s0.4,0.6,0.4,1.1
		c0,0.4-0.1,0.7-0.3,1c-0.2,0.3-0.4,0.6-0.7,0.8c-0.3,0.2-0.7,0.4-1.1,0.6c-0.4,0.1-0.8,0.2-1.3,0.2c-0.3,0-0.6,0-0.9-0.1
		c-0.3-0.1-0.6-0.2-0.8-0.3c-0.2-0.1-0.4-0.3-0.5-0.5c-0.1-0.2-0.2-0.4-0.2-0.6c0-0.2,0.1-0.4,0.2-0.6c0.1-0.2,0.2-0.3,0.3-0.5
		c0.1-0.1,0.3-0.3,0.5-0.6c-0.3-0.1-0.6-0.2-0.7-0.3s-0.2-0.3-0.2-0.4c0-0.2,0.1-0.4,0.3-0.7c0.2-0.2,0.5-0.5,0.9-0.9
		c-0.8-0.4-1.2-1.1-1.2-2c0-0.3,0.1-0.7,0.2-1s0.3-0.5,0.5-0.8c0.2-0.2,0.5-0.4,0.8-0.5c0.3-0.1,0.6-0.2,1-0.2c0.1,0,0.2,0,0.3,0
		c0.1,0,0.2,0,0.3,0c0.1,0,0.2,0,0.3,0.1c0.1,0,0.2,0.1,0.4,0.1h1l1.1-0.1v0.9H173.3z M172.7,94.6h-2.3l-0.2,0.3
		c-0.2,0.3-0.3,0.5-0.4,0.7s-0.1,0.3-0.1,0.4c0,0.2,0.1,0.4,0.4,0.6c0.3,0.1,0.6,0.2,1,0.2c0.3,0,0.6,0,0.9-0.1
		c0.3-0.1,0.5-0.2,0.8-0.3c0.2-0.1,0.4-0.3,0.5-0.5c0.1-0.2,0.2-0.4,0.2-0.6C173.5,94.8,173.3,94.6,172.7,94.6z M172.4,89.6
		c-0.1-0.2-0.2-0.4-0.3-0.5s-0.3-0.2-0.4-0.3c-0.2-0.1-0.4-0.1-0.6-0.1c-0.2,0-0.4,0-0.5,0.1c-0.2,0.1-0.3,0.2-0.4,0.3
		c-0.1,0.1-0.2,0.3-0.3,0.5c-0.1,0.2-0.1,0.4-0.1,0.6c0,0.2,0,0.4,0.1,0.6s0.2,0.4,0.3,0.5s0.3,0.3,0.4,0.3c0.2,0.1,0.4,0.1,0.5,0.1
		c0.2,0,0.4,0,0.5-0.1s0.3-0.2,0.4-0.3s0.2-0.3,0.3-0.5c0.1-0.2,0.1-0.4,0.1-0.6S172.5,89.7,172.4,89.6z"/>
	<path class="st6" d="M185.8,86.7c-0.3-0.2-0.7-0.4-1-0.5c-0.3-0.1-0.7-0.2-1.2-0.2c-0.5,0-0.9,0.1-1.3,0.3c-0.4,0.2-0.8,0.4-1,0.7
		c-0.3,0.3-0.5,0.7-0.7,1.1c-0.2,0.4-0.2,0.9-0.2,1.4c0,0.6,0.1,1.1,0.2,1.6c0.2,0.5,0.4,0.9,0.7,1.2c0.3,0.3,0.7,0.6,1.1,0.8
		c0.4,0.2,0.9,0.3,1.5,0.3c0.4,0,0.7,0,1.1-0.1c0.3-0.1,0.7-0.2,1-0.3l0.3,0.9c-0.1,0.1-0.3,0.1-0.4,0.2c-0.1,0-0.2,0.1-0.3,0.1
		s-0.2,0.1-0.3,0.1c-0.1,0-0.2,0.1-0.3,0.1c-0.2,0.1-0.4,0.1-0.6,0.1c-0.2,0-0.4,0-0.6,0c-0.7,0-1.3-0.1-1.9-0.4s-1.1-0.6-1.5-1
		c-0.4-0.4-0.7-0.9-1-1.5c-0.2-0.6-0.3-1.2-0.3-1.9c0-0.7,0.1-1.3,0.4-1.8c0.2-0.6,0.6-1.1,1-1.5s0.9-0.7,1.4-1
		c0.6-0.2,1.2-0.4,1.8-0.4c0.6,0,1.1,0.1,1.7,0.3c0.2,0.1,0.4,0.1,0.5,0.2c0.1,0.1,0.3,0.2,0.5,0.3L185.8,86.7z"/>
	<path class="st6" d="M188,91c0,0.8,0.2,1.4,0.5,1.8c0.4,0.4,0.9,0.6,1.5,0.6c0.3,0,0.5,0,0.8-0.1c0.2-0.1,0.5-0.2,0.9-0.5l0.4,0.8
		c-0.2,0.1-0.4,0.3-0.6,0.4s-0.4,0.2-0.5,0.2s-0.3,0.1-0.5,0.1c-0.2,0-0.4,0-0.6,0c-0.4,0-0.8-0.1-1.2-0.2c-0.4-0.2-0.7-0.4-0.9-0.7
		s-0.5-0.6-0.6-1c-0.1-0.4-0.2-0.9-0.2-1.4s0.1-0.9,0.2-1.4c0.1-0.4,0.3-0.8,0.6-1c0.3-0.3,0.6-0.5,0.9-0.7c0.4-0.2,0.8-0.2,1.2-0.2
		c0.4,0,0.7,0.1,1,0.2c0.3,0.1,0.5,0.3,0.8,0.5c0.2,0.2,0.4,0.5,0.5,0.8c0.1,0.3,0.2,0.7,0.2,1.1V91H188z M190.8,89.1
		c-0.2-0.3-0.6-0.4-1-0.4c-0.4,0-0.8,0.1-1.1,0.4c-0.3,0.3-0.5,0.6-0.6,1.1h3.1C191.1,89.8,191,89.4,190.8,89.1z"/>
	<path class="st6" d="M198.1,94.2v-4.4c0-0.2,0-0.4,0-0.5s0-0.2-0.1-0.3c0-0.1-0.1-0.2-0.2-0.2c-0.1-0.1-0.2-0.1-0.4-0.1
		c-0.3,0-0.7,0.1-1,0.4s-0.8,0.7-1.4,1.3v3.8h-1V88h1v1.3c0.1-0.1,0.2-0.2,0.3-0.3c0.1-0.1,0.1-0.2,0.2-0.2c0.1-0.1,0.1-0.1,0.2-0.2
		s0.1-0.1,0.2-0.2c0.2-0.2,0.5-0.4,0.8-0.5c0.3-0.1,0.6-0.2,0.9-0.2c1.1,0,1.6,0.6,1.6,1.7v4.7H198.1z"/>
	<path class="st6" d="M203.8,94c-0.1,0.1-0.3,0.2-0.4,0.2c-0.1,0.1-0.2,0.1-0.3,0.1c-0.1,0-0.2,0-0.4,0c-0.4,0-0.6-0.1-0.9-0.4
		c-0.2-0.3-0.3-0.6-0.3-1v-4.2h-1v-0.6l1-0.3v-1.8h1V88h1.7v0.9h-1.7v3.6l0,0.3c0,0.1,0,0.2,0,0.2c0,0.1,0,0.1,0,0.1
		c0,0.2,0.1,0.3,0.4,0.3c0.1,0,0.3,0,0.4-0.1c0.1-0.1,0.3-0.2,0.5-0.3l0.4,0.7C204.1,93.8,204,93.9,203.8,94z"/>
	<path class="st6" d="M206.2,91c0,0.8,0.2,1.4,0.5,1.8c0.4,0.4,0.9,0.6,1.5,0.6c0.3,0,0.5,0,0.8-0.1c0.2-0.1,0.5-0.2,0.9-0.5
		l0.4,0.8c-0.2,0.1-0.4,0.3-0.6,0.4s-0.4,0.2-0.5,0.2s-0.3,0.1-0.5,0.1c-0.2,0-0.4,0-0.6,0c-0.4,0-0.8-0.1-1.2-0.2
		c-0.4-0.2-0.7-0.4-0.9-0.7s-0.5-0.6-0.6-1c-0.1-0.4-0.2-0.9-0.2-1.4s0.1-0.9,0.2-1.4c0.1-0.4,0.3-0.8,0.6-1
		c0.3-0.3,0.6-0.5,0.9-0.7c0.4-0.2,0.8-0.2,1.2-0.2c0.4,0,0.7,0.1,1,0.2c0.3,0.1,0.5,0.3,0.8,0.5c0.2,0.2,0.4,0.5,0.5,0.8
		c0.1,0.3,0.2,0.7,0.2,1.1V91H206.2z M209,89.1c-0.2-0.3-0.6-0.4-1-0.4c-0.4,0-0.8,0.1-1.1,0.4c-0.3,0.3-0.5,0.6-0.6,1.1h3.1
		C209.4,89.8,209.3,89.4,209,89.1z"/>
	<path class="st6" d="M215.2,89.1c-0.2-0.2-0.3-0.2-0.4-0.2c-0.4,0-0.9,0.5-1.5,1.6v3.7h-1V88h1v1.1c0.2-0.2,0.4-0.5,0.5-0.6
		c0.2-0.2,0.3-0.3,0.4-0.4c0.1-0.1,0.2-0.2,0.4-0.2c0.1,0,0.2-0.1,0.3-0.1c0.2,0,0.5,0.1,0.8,0.4L215.2,89.1z"/>
</g>
<path class="st7" d="M195,56.1"/>
<path class="st7" d="M88.9,45.8"/>
<path class="st8" d="M28.8,52.2"/>
<path class="st8" d="M112.2,59.8"/>
<path class="st9" d="M142.3,15.5C142.3,15.5,142.3,15.5,142.3,15.5"/>
<path class="st9" d="M147.6,16.3"/>
<path class="st9" d="M147.7,16.7"/>
<g>
	<path class="st9" d="M143.9,18.6c0.7,0.2,1.4-0.1,2-0.5"/>
	<path class="st9" d="M167.5,17.9c-7.6-3-14.3-4.1-17.3-4.5l-1.8-6.7l-11.6,3.1l0.7,2.7C127,13,116,17.1,105.3,24.7
		C94.6,32.2,88,40.3,87.8,40.6l2.3,1.8c0.2-0.3,21.5-26.2,48.3-27.1l1.6,6l3.8-1c0.7,4.6,0.1,11.7-6,20.9l3.9,2.6
		c7-10.6,7.6-19.1,6.6-24.7l3.3-0.9l-0.5-1.8c8.1,1.2,32.5,6.7,41.9,27.5l2.7-1.2C190.7,31.8,180.9,23.2,167.5,17.9z M149.2,16.3
		l0.2,0.8l-1.5,0.4l-4.5,1.2l-2.2,0.6l-1.1-3.9l-0.8-2.9l-0.4-1.4l8.2-2.2l1.4,5.1L149.2,16.3z"/>
</g>
<path class="st9" d="M59.9,21.9l-0.5-3.8l-9.4,1.3l0.5,3.5C30.2,27.4,29.2,52.8,29.2,53l2.3,0.1c0-0.2,0.9-23.6,19.2-27.8l0.5,3.6
	l9.4-1.3l-0.5-3.3c4.9,0,15,2,25.4,16.3l1.9-1.4C76.4,23.9,65.3,21.9,59.9,21.9z M58.5,24.4l0.2,1.7l-6,0.8l-0.8-6l6-0.8l0.3,2"/>
<path class="st8" d="M195.6,52.2"/>
<path class="st9" d="M109.1,62.6C109.1,62.6,109.1,62.6,109.1,62.6c-28,0-56.2-2.6-83.8-7.6L23,54.6l0.8-4.6l2.3,0.4
	c27.3,5,55.2,7.5,82.9,7.5c0,0,0,0,0,0c27.7,0,55.6-2.5,82.9-7.5l2.3-0.4l0.8,4.6l-2.3,0.4C165.3,60.1,137.1,62.6,109.1,62.6z"/>
<circle class="st6" cx="31.8" cy="56.1" r="20.3"/>
<path class="st0" d="M34.8,64.3c-0.4,0.3-0.7,0.5-1.1,0.7c-0.3,0.2-0.6,0.3-0.9,0.4c-0.3,0.1-0.6,0.1-1,0.1c-1,0-1.8-0.4-2.4-1.1
	c-0.6-0.7-0.9-1.6-0.9-2.7V50.3h-2.9v-1.7l2.9-0.7v-5h2.8v5h4.5v2.4h-4.5V60l0,0.8c0,0.3,0,0.5,0,0.7c0,0.2,0,0.3,0,0.4
	c0,0.6,0.4,0.8,1,0.8c0.4,0,0.7-0.1,1.1-0.3c0.4-0.2,0.8-0.5,1.4-0.9l1.2,1.9C35.6,63.7,35.2,64.1,34.8,64.3z"/>
<circle class="st6" cx="85.7" cy="56.1" r="20.3"/>
<path class="st0" d="M81.4,56c0,2.1,0.5,3.7,1.5,4.9c1,1.2,2.3,1.8,4.1,1.8c0.8,0,1.4-0.1,2.1-0.4c0.6-0.2,1.4-0.7,2.3-1.3l1.1,2.2
	c-0.6,0.4-1.2,0.7-1.7,1c-0.5,0.3-1,0.5-1.5,0.6c-0.5,0.2-1,0.3-1.4,0.3c-0.5,0.1-1,0.1-1.5,0.1c-1.2,0-2.3-0.2-3.2-0.6
	c-1-0.4-1.8-1-2.5-1.8C79.9,62,79.4,61.1,79,60c-0.4-1.1-0.6-2.3-0.6-3.7s0.2-2.6,0.6-3.7c0.4-1.1,0.9-2,1.6-2.8
	c0.7-0.8,1.5-1.4,2.5-1.8c1-0.4,2.1-0.6,3.3-0.6c1,0,1.9,0.2,2.7,0.5c0.8,0.3,1.5,0.8,2.1,1.4c0.6,0.6,1,1.4,1.3,2.2
	c0.3,0.9,0.5,1.8,0.5,2.9V56H81.4z M89,50.9c-0.6-0.7-1.5-1-2.7-1c-1.2,0-2.2,0.3-3,1c-0.8,0.7-1.3,1.7-1.7,3h8.3
	C89.9,52.6,89.6,51.6,89,50.9z"/>
<circle class="st6" cx="139.3" cy="56.1" r="20.3"/>
<path class="st0" d="M143.9,64.2c-1,0.9-2.5,1.3-4.4,1.3c-0.7,0-1.5-0.1-2.4-0.2c-0.4-0.1-0.8-0.2-1.1-0.2c-0.3-0.1-0.6-0.2-0.9-0.3
	c-0.3-0.1-0.6-0.2-0.9-0.4c-0.3-0.1-0.7-0.3-1.1-0.6l1.2-2.4c0.3,0.2,0.5,0.3,0.7,0.4c0.2,0.1,0.4,0.2,0.5,0.3
	c0.6,0.3,1.3,0.5,2,0.7c0.7,0.2,1.4,0.3,2,0.3c0.9,0,1.6-0.2,2.2-0.6c0.6-0.4,0.8-1,0.8-1.6c0-0.2,0-0.4-0.1-0.6
	c-0.1-0.2-0.1-0.4-0.2-0.5c-0.2-0.2-0.4-0.5-0.6-0.7c-0.2-0.2-0.5-0.4-0.8-0.6c-0.3-0.2-0.8-0.4-1.3-0.7c-0.5-0.2-1.1-0.5-1.9-0.8
	c-0.8-0.4-1.5-0.7-2.1-1c-0.6-0.3-1-0.7-1.4-1c-0.4-0.4-0.6-0.7-0.8-1.2c-0.2-0.4-0.2-0.9-0.2-1.4c0-1.5,0.6-2.7,1.7-3.5
	c1.2-0.8,2.7-1.3,4.7-1.3c0.4,0,0.7,0,1.1,0c0.4,0,0.7,0.1,1.1,0.2c0.3,0.1,0.6,0.1,0.9,0.2c0.3,0.1,0.5,0.2,0.7,0.2
	c0.2,0.1,0.5,0.2,0.8,0.3c0.3,0.1,0.6,0.3,0.9,0.5l-1.4,2.3c-0.6-0.4-1-0.6-1.3-0.7c-0.3-0.1-0.7-0.3-1.1-0.4
	c-0.7-0.2-1.4-0.3-2-0.3c-1,0-1.7,0.2-2.3,0.6c-0.6,0.4-0.9,0.9-0.9,1.6c0,0.4,0.1,0.8,0.4,1.1c0.2,0.2,0.3,0.3,0.5,0.5
	c0.2,0.1,0.4,0.3,0.7,0.4c0.3,0.2,0.7,0.3,1.1,0.5c0.5,0.2,1.1,0.5,1.9,0.8c0.9,0.4,1.6,0.7,2.2,1.1c0.6,0.4,1.1,0.7,1.4,1.1
	c0.4,0.4,0.6,0.9,0.8,1.4c0.1,0.5,0.2,1.1,0.2,1.7C145.4,62.1,144.9,63.3,143.9,64.2z"/>
<circle class="st6" cx="193.1" cy="56.1" r="20.3"/>
<path class="st0" d="M198.5,63.9c-0.2,0.1-0.3,0.2-0.5,0.2c-1.4,0.8-3,1.2-4.7,1.2c-1.3,0-2.5-0.2-3.5-0.6c-1.1-0.4-2-1-2.7-1.8
	c-0.8-0.8-1.4-1.7-1.8-2.8c-0.4-1.1-0.6-2.3-0.6-3.6c0-1.4,0.2-2.6,0.7-3.7c0.4-1.1,1.1-2.1,1.8-2.9c0.8-0.8,1.7-1.4,2.8-1.9
	c1.1-0.5,2.3-0.7,3.6-0.7c0.9,0,1.7,0.1,2.5,0.3c0.3,0.1,0.5,0.2,0.8,0.2c0.2,0.1,0.4,0.2,0.6,0.3c0.2,0.1,0.4,0.2,0.6,0.4
	c0.2,0.2,0.5,0.3,0.8,0.5l-1.6,2.3c-0.7-0.6-1.3-0.9-1.8-1.1c-0.6-0.2-1.2-0.3-2-0.3c-1.7,0-3.1,0.6-4.1,1.8c-1,1.2-1.6,2.7-1.6,4.7
	c0,2,0.5,3.5,1.6,4.6c1.1,1.1,2.5,1.7,4.3,1.7c0.8,0,1.5-0.1,2.1-0.3c0.6-0.2,1.3-0.6,2-1.1l1.5,2.2
	C198.9,63.6,198.7,63.7,198.5,63.9z"/>
</svg>
